<?xml version="1.0" encoding="utf-8"?>
<!-- Generator: Adobe Illustrator 25.3.0, SVG Export Plug-In . SVG Version: 6.00 Build 0)  -->
<svg version="1.1" id="svg6365" xmlns:svg="http://www.w3.org/2000/svg"
	 xmlns="http://www.w3.org/2000/svg" xmlns:xlink="http://www.w3.org/1999/xlink" x="0px" y="0px" viewBox="0 0 1024 155"
	 style="enable-background:new 0 0 1024 155;" xml:space="preserve">
<style type="text/css">
	.st0{fill:#0E1B42;}
	.st1{fill:url(#SVGID_1_);}
	.st2{fill:url(#SVGID_2_);}
	.st3{fill:url(#SVGID_3_);}
	.st4{fill:url(#SVGID_4_);}
	.st5{fill:url(#SVGID_5_);}
	.st6{fill:url(#SVGID_6_);}
	.st7{fill:url(#SVGID_7_);}
	.st8{fill:url(#SVGID_8_);}
	.st9{fill:url(#SVGID_9_);}
	.st10{fill:url(#SVGID_10_);}
</style>
<g>
	<path class="st0" d="M77.6,155c-3-0.3-4.5-2.3-6.2-4c-2.5-2.4-4.9-5-7.4-7.4c-3.6-3.5-3.8-6.6-0.3-10.1
		c7.1-7.2,14.3-14.2,21.4-21.4c10.2-10.1,20.3-20.3,30.5-30.5c2.9-2.9,2.9-6.1,0-9c-8.2-8.3-16.5-16.5-24.8-24.8
		c-9-9-18.1-18-27.1-27.1c-2.9-2.9-2.8-6.4,0-9.2c3.2-3.2,6.5-6.4,9.8-9.6c2.6-2.5,5.9-2.6,8.5-0.1c10.3,10.2,20.6,20.5,30.9,30.7
		c12.6,12.6,25.2,25.3,37.9,37.8c5.7,5.6,5.7,7.7,0.1,13.4c-17.8,17.7-35.6,35.5-53.3,53.2c-5.3,5.3-10.5,10.6-15.9,15.8
		C80.6,153.8,79,154.3,77.6,155z"/>
	<linearGradient id="SVGID_1_" gradientUnits="userSpaceOnUse" x1="0" y1="77.7909" x2="71.6495" y2="77.7909">
		<stop  offset="0" style="stop-color:#F57D34"/>
		<stop  offset="0.5338" style="stop-color:#F47026"/>
		<stop  offset="0.5338" style="stop-color:#F47026"/>
		<stop  offset="1" style="stop-color:#F47026"/>
	</linearGradient>
	<path class="st1" d="M41,83.7c-3-3-3-7.8,0-10.7l28.4-28.4c3-3,3-7.8,0-10.7l-8.4-8.4c-3-3-7.8-3-10.7,0L16.5,59.2L1.7,74
		c0,0,0,0,0,0C0.7,75.1,0,76.6,0,78.2c0,1.6,0.6,3,1.6,4l47.9,47.9c3,3,7.8,3,10.7,0l8.2-8.2c3-3,3-7.8,0-10.7L41,83.7z"/>
</g>
<g>
	<linearGradient id="SVGID_2_" gradientUnits="userSpaceOnUse" x1="208.6348" y1="78.8589" x2="297.8447" y2="78.8589">
		<stop  offset="0" style="stop-color:#F57D34"/>
		<stop  offset="0.5338" style="stop-color:#F47026"/>
		<stop  offset="0.5338" style="stop-color:#F47026"/>
		<stop  offset="1" style="stop-color:#F47026"/>
	</linearGradient>
	<path class="st2" d="M208.6,26.4h48.7c12,0,21.4,3.3,27.4,9.3c4.8,4.8,7.2,10.6,7.2,17.8v0.3c0,11.8-6.3,18.4-13.8,22.6
		c12.1,4.6,19.6,11.7,19.6,25.8v0.3c0,19.2-15.6,28.8-39.3,28.8h-49.9V26.4z M252.4,68.8c10.2,0,16.6-3.3,16.6-11.1v-0.3
		c0-6.9-5.4-10.8-15.1-10.8h-22.8v22.2H252.4z M258.6,111.1c10.2,0,16.3-3.6,16.3-11.4v-0.3c0-7-5.2-11.4-17.1-11.4h-26.7v23.1
		H258.6z"/>
	<linearGradient id="SVGID_3_" gradientUnits="userSpaceOnUse" x1="310.5913" y1="91.3033" x2="397.5522" y2="91.3033">
		<stop  offset="0" style="stop-color:#F57D34"/>
		<stop  offset="0.5338" style="stop-color:#F47026"/>
		<stop  offset="0.5338" style="stop-color:#F47026"/>
		<stop  offset="1" style="stop-color:#F47026"/>
	</linearGradient>
	<path class="st3" d="M310.6,91.6v-0.3c0-23.1,18.6-41.8,43.6-41.8c24.9,0,43.3,18.4,43.3,41.5v0.3c0,23.1-18.6,41.8-43.6,41.8
		C329,133.1,310.6,114.7,310.6,91.6z M375.1,91.6v-0.3c0-11.8-8.5-22.2-21.1-22.2c-13,0-20.8,10-20.8,21.9v0.3
		c0,11.8,8.5,22.2,21.1,22.2C367.3,113.5,375.1,103.4,375.1,91.6z"/>
	<linearGradient id="SVGID_4_" gradientUnits="userSpaceOnUse" x1="410.1479" y1="91.3033" x2="497.1089" y2="91.3033">
		<stop  offset="0" style="stop-color:#F57D34"/>
		<stop  offset="0.5338" style="stop-color:#F47026"/>
		<stop  offset="0.5338" style="stop-color:#F47026"/>
		<stop  offset="1" style="stop-color:#F47026"/>
	</linearGradient>
	<path class="st4" d="M410.1,91.6v-0.3c0-23.1,18.6-41.8,43.6-41.8c24.9,0,43.3,18.4,43.3,41.5v0.3c0,23.1-18.6,41.8-43.6,41.8
		C428.6,133.1,410.1,114.7,410.1,91.6z M474.6,91.6v-0.3c0-11.8-8.5-22.2-21.1-22.2c-13,0-20.8,10-20.8,21.9v0.3
		c0,11.8,8.5,22.2,21.1,22.2C466.8,113.5,474.6,103.4,474.6,91.6z"/>
	<linearGradient id="SVGID_5_" gradientUnits="userSpaceOnUse" x1="514.6523" y1="76.6099" x2="537.4424" y2="76.6099">
		<stop  offset="0" style="stop-color:#F57D34"/>
		<stop  offset="0.5338" style="stop-color:#F47026"/>
		<stop  offset="0.5338" style="stop-color:#F47026"/>
		<stop  offset="1" style="stop-color:#F47026"/>
	</linearGradient>
	<path class="st5" d="M514.7,21.9h22.8v109.5h-22.8V21.9z"/>
	<linearGradient id="SVGID_6_" gradientUnits="userSpaceOnUse" x1="556.1836" y1="91.1534" x2="626.0518" y2="91.1534">
		<stop  offset="0" style="stop-color:#F57D34"/>
		<stop  offset="0.5338" style="stop-color:#F47026"/>
		<stop  offset="0.5338" style="stop-color:#F47026"/>
		<stop  offset="1" style="stop-color:#F47026"/>
	</linearGradient>
	<path class="st6" d="M556.2,115.3l41.5-45.9h-40.2V51h68.5v16l-41.7,45.9h41.7v18.4h-69.9V115.3z"/>
	<linearGradient id="SVGID_7_" gradientUnits="userSpaceOnUse" x1="638.498" y1="91.4532" x2="712.415" y2="91.4532">
		<stop  offset="0" style="stop-color:#F57D34"/>
		<stop  offset="0.5338" style="stop-color:#F47026"/>
		<stop  offset="0.5338" style="stop-color:#F47026"/>
		<stop  offset="1" style="stop-color:#F47026"/>
	</linearGradient>
	<path class="st7" d="M638.5,108.2v-0.3c0-17.5,13.3-25.6,32.4-25.6c8.1,0,13.9,1.3,19.6,3.3v-1.3c0-9.4-5.8-14.7-17.2-14.7
		c-8.7,0-14.8,1.6-22.2,4.3l-5.7-17.4c8.8-3.9,17.5-6.4,31.2-6.4c12.4,0,21.4,3.3,27.1,9c6,6,8.7,14.8,8.7,25.6v46.6h-22v-8.7
		c-5.5,6.1-13.2,10.2-24.3,10.2C650.9,132.8,638.5,124.1,638.5,108.2z M690.8,103v-4c-3.9-1.8-9-3-14.5-3c-9.7,0-15.7,3.9-15.7,11.1
		v0.3c0,6.1,5.1,9.7,12.4,9.7C683.6,117.1,690.8,111.2,690.8,103z"/>
	<linearGradient id="SVGID_8_" gradientUnits="userSpaceOnUse" x1="732.0586" y1="90.4039" x2="805.6758" y2="90.4039">
		<stop  offset="0" style="stop-color:#F57D34"/>
		<stop  offset="0.5338" style="stop-color:#F47026"/>
		<stop  offset="0.5338" style="stop-color:#F47026"/>
		<stop  offset="1" style="stop-color:#F47026"/>
	</linearGradient>
	<path class="st8" d="M732.1,51h22.8v11.4c5.2-6.7,12-12.9,23.5-12.9c17.2,0,27.3,11.4,27.3,29.8v52h-22.8V86.5
		c0-10.8-5.1-16.3-13.8-16.3c-8.7,0-14.2,5.5-14.2,16.3v44.8h-22.8V51z"/>
	<linearGradient id="SVGID_9_" gradientUnits="userSpaceOnUse" x1="821.8691" y1="77.3594" x2="906.2812" y2="77.3594">
		<stop  offset="0" style="stop-color:#F57D34"/>
		<stop  offset="0.5338" style="stop-color:#F47026"/>
		<stop  offset="0.5338" style="stop-color:#F47026"/>
		<stop  offset="1" style="stop-color:#F47026"/>
	</linearGradient>
	<path class="st9" d="M821.9,91.3V91c0-26.8,17.5-41.5,36.6-41.5c12.1,0,19.6,5.5,25,12V21.9h22.8v109.5h-22.8v-11.5
		c-5.5,7.5-13.2,13-25,13C839.7,132.8,821.9,118.1,821.9,91.3z M883.8,91.3V91c0-13.3-8.8-22.2-19.5-22.2
		c-10.6,0-19.6,8.7-19.6,22.2v0.3c0,13.3,9,22.2,19.6,22.2C874.9,113.5,883.8,104.6,883.8,91.3z"/>
	<linearGradient id="SVGID_10_" gradientUnits="userSpaceOnUse" x1="922.7764" y1="91.3033" x2="1009.7373" y2="91.3033">
		<stop  offset="0" style="stop-color:#F57D34"/>
		<stop  offset="0.5338" style="stop-color:#F47026"/>
		<stop  offset="0.5338" style="stop-color:#F47026"/>
		<stop  offset="1" style="stop-color:#F47026"/>
	</linearGradient>
	<path class="st10" d="M922.8,91.6v-0.3c0-23.1,18.6-41.8,43.6-41.8c24.9,0,43.3,18.4,43.3,41.5v0.3c0,23.1-18.6,41.8-43.6,41.8
		C941.2,133.1,922.8,114.7,922.8,91.6z M987.2,91.6v-0.3c0-11.8-8.5-22.2-21.1-22.2c-13,0-20.8,10-20.8,21.9v0.3
		c0,11.8,8.5,22.2,21.1,22.2C979.5,113.5,987.2,103.4,987.2,91.6z"/>
</g>
</svg>
